<svg width="72" height="72" viewBox="0 0 72 72" fill="none" xmlns="http://www.w3.org/2000/svg">
<path d="M72 64.6961C56.8391 79.3151 45.3076 64.6961 45.3076 64.6961V48.2371H36.1524C36.1524 53.3904 36.1524 53.3904 36.1524 53.3904C36.1524 53.3904 22.8033 53.3904 22.8033 26.698C22.8033 2.15317e-06 22.8033 0 22.8033 0C22.8033 0 36.1524 2.15317e-06 36.1524 26.698V34.888H46.8711C49.5804 34.888 51.7986 36.999 51.968 39.6632C52.9275 40.143 53.8927 40.7639 54.7732 41.5597C56.9576 43.5353 58.6509 46.5945 58.6509 51.3471C58.6509 64.6961 72 64.6961 72 64.6961Z" fill="#270349"/>
<path d="M71.9999 18.4231C71.9999 18.4231 58.6509 18.4231 58.6509 31.7721C58.6509 36.536 56.9519 39.5953 54.7732 41.5595C53.8927 40.7637 52.9275 40.1428 51.9679 39.663C51.7986 36.9988 49.5804 34.8878 46.871 34.8878H45.3076V18.4231C45.3076 18.4231 56.8391 3.80412 71.9999 18.4231Z" fill="#C4C4C4"/>
<path d="M0 21.3525C0 21.3525 10.6736 21.3525 10.6736 10.6789C10.6736 0.00536894 21.3471 0.00537109 21.3471 0.00537109V21.3581C21.3471 21.3525 12.1242 33.042 0 21.3525Z" fill="#C4C4C4"/>
</svg>
