<svg width="481" height="456" viewBox="0 0 481 456" fill="none" xmlns="http://www.w3.org/2000/svg">
<g clip-path="url(#clip0)">
<path d="M406.523 262.434C406.523 262.434 404.082 273.819 402.946 276.095C401.809 278.372 391.576 296.254 386.543 298.864C381.51 301.475 343.173 322.772 331.167 330.574C319.161 338.376 288.282 354.648 282.43 356.272C276.579 357.896 273.668 363.756 270.091 366.685C268.325 368.226 266.343 369.499 264.209 370.465C264.209 370.465 268.469 365.699 266.998 361.069C265.528 356.439 247.155 343.992 244.35 341.791C241.546 339.59 235.816 335.446 232.405 334.475C230.837 333.943 229.195 333.662 227.539 333.64C227.539 333.64 230.101 330.346 231.799 329.982C233.496 329.618 231.92 326.081 235.452 321.679C238.984 317.277 253.491 308.883 256.523 306.074C259.555 303.266 278.095 282.41 280.156 281.196C282.218 279.981 287.099 276.551 287.099 276.551C277.955 278.418 268.689 279.636 259.373 280.194C243.79 281.18 239.105 279.222 230.419 281.302C221.733 283.381 205.664 283.973 200.101 288.375C194.537 292.777 193.037 296.785 191.566 297.878C190.618 298.636 189.799 299.543 189.141 300.564C189.141 300.564 193.279 294.341 191.445 288.254C189.611 282.167 177.559 271.056 166.478 267.398C155.396 263.739 154.851 264.043 154.851 264.043C154.119 264.524 153.434 265.073 152.804 265.682C152.137 266.411 151.713 266.927 151.713 266.927C151.713 266.927 149.939 265.409 149.788 264.802C149.492 264.041 149.492 263.196 149.788 262.434C150.212 261.235 151.304 259.823 152.046 258.184C152.789 256.545 156.306 250.746 156.306 250.746C156.306 250.746 169.934 228.903 171.829 227.795C173.724 226.687 176.043 222.103 185.306 221.602C194.568 221.101 224.613 219.659 224.613 219.659C224.613 219.659 244.805 217.291 251.733 214.938C258.661 212.585 315.25 211.28 315.25 211.28C315.25 211.28 339.504 235.673 361.288 234.702C383.072 233.73 406.523 262.434 406.523 262.434Z" fill="#151619"/>
<path d="M271.879 348.819C271.879 348.819 272.243 356.029 271.152 357.73C270.06 359.43 263.724 370.541 262.86 371.512C261.996 372.484 251.536 386.691 223.446 391.761C223.446 391.761 204.679 397.985 200.177 400.55C195.674 403.115 178.863 408.14 175.922 410.052C172.981 411.965 158.989 418.113 156.549 420.298C154.108 422.484 143.997 426.522 143.997 426.522C143.997 426.522 142.178 401.036 140.222 399.928C138.267 398.82 140.101 388.346 143.254 386.388C146.407 384.43 158.246 384.202 160.429 382.73C162.612 381.257 173.709 378.176 177.483 375.14C181.258 372.104 209.318 347.817 210.379 346.725C211.44 345.632 230.722 333.67 234.376 330.984C236.208 329.538 238.254 328.386 240.439 327.568L271.879 348.819Z" fill="#EBEEDB"/>
<path d="M159.444 256.226C159.444 256.226 151.319 268.369 149.591 270.616C147.862 272.862 135.083 292.459 134.598 293.552C134.113 294.645 123.987 311.767 122.471 314.651C120.955 317.535 103.719 337.83 97.6249 339.302C97.6249 339.302 98.5951 350.034 98.5951 350.884C98.5951 351.734 113.951 358.564 115.528 360.401C117.28 362.156 119.154 363.784 121.137 365.274L123.441 363.452C123.441 363.452 129.414 352.827 133.916 349.548C138.418 346.269 159.323 326.05 160.05 324.836C163.924 320.688 168.121 316.856 172.602 313.376C176.256 310.689 188.428 305.088 193.431 293.248C198.433 281.408 192.339 277.765 192.339 277.765L172.481 261.296L159.444 256.226Z" fill="#EBEEDB"/>
<path d="M147.62 381.439L149.59 381.925C149.59 381.925 155.548 387.177 156.154 388.149C156.761 389.12 161.021 401.446 156.882 415.228L154.942 424.245C151.335 425.909 148.038 428.178 145.194 430.954C142.346 433.841 139.307 436.534 136.099 439.014C136.099 439.014 125.988 442.43 122.334 445.966C118.681 449.503 109.055 456.455 107.175 455.97C109.708 454.178 111.858 451.897 113.497 449.26C115.428 446.289 117.587 443.473 119.954 440.836C121.789 438.771 122.152 437.299 121.182 436.085C120.212 434.87 119.954 421.209 121.425 418.28C122.895 415.35 119.227 397.18 119.348 394.615C119.541 391.48 120.049 388.373 120.864 385.34C121.47 383.64 116.589 373.394 115.255 372.772C114.109 372.135 113.045 371.36 112.087 370.465C112.087 370.465 116.635 370.586 118.545 372.408C120.455 374.229 122.926 380.225 122.926 380.225C122.926 380.225 126.943 382.289 129.141 382.047C131.339 381.804 136.811 380.529 138.403 380.529C139.995 380.529 143.148 380.65 143.148 380.65L145.225 382.957L145.71 381.257L147.62 381.439Z" fill="#181D1E"/>
<path d="M106.448 368.75C103.956 368.214 101.36 368.468 99.0196 369.478C95.7301 371.193 90.7427 378.586 89.9241 380.589C89.1055 382.593 87.3622 389.849 91.8645 405.59L92.7134 410.584C92.7134 410.584 92.5921 410.462 91.5007 412.42C90.4092 414.378 88.0898 417.915 91.9857 429.983C94.1406 436.799 96.7021 443.48 99.6563 449.989C99.6563 449.989 100.52 453.161 105.72 454.619C110.92 456.076 116.331 448.41 116.331 448.41L122.395 439.014L121.667 434.248L120.076 435.356C120.076 435.356 121.91 419.372 123.107 416.2C124.305 413.027 120.925 402.296 120.925 402.296C120.925 402.296 118.12 394.251 118.484 393.188C118.848 392.126 121.046 382.563 121.046 382.563C121.046 382.563 116.407 371.497 115.194 371.831C113.982 372.165 106.448 368.75 106.448 368.75Z" fill="#F3E8E8"/>
<path d="M122.804 364.894C121.584 363.752 120.537 362.438 119.697 360.993C118.56 358.868 111.405 348.956 111.405 348.956C111.405 348.956 105.068 341.366 101.339 339.848C98.4645 338.656 95.3366 338.207 92.2434 338.543C90.4547 338.862 85.7402 339.196 80.8741 340.167C76.008 341.138 69.6714 346.011 58.3021 346.421C46.9327 346.831 36.3668 348.622 31.9858 347.817C27.6048 347.013 15.9019 345.207 12.8246 345.207C9.74731 345.207 4.86607 350.246 4.86607 350.246L96.6245 378.555L118.575 372.089L122.804 364.894Z" fill="#181D1E"/>
<path d="M92.6224 370.465C92.6224 370.465 75.25 364.074 71.0206 363.907C66.7912 363.74 46.766 354.648 46.766 354.648C46.766 354.648 18.6609 347.058 17.524 347.058C16.387 347.058 7.94343 345.753 5.66955 347.058C3.39568 348.364 -6.66999 360.067 7.18547 379.588C21.0409 399.108 41.2936 398.121 60.2425 398.622C79.1914 399.123 75.6745 403.814 90.1363 405.453C104.598 407.092 107.069 384.627 107.069 384.627L98.8983 374.214C96.8828 372.84 94.7871 371.588 92.6224 370.465Z" fill="#F3E8E8"/>
<path d="M434.219 86.5674C434.219 86.5674 468.084 120.235 469.085 120.235C470.085 120.235 473.724 123.741 475.982 127.551C479.969 134.261 481.515 157.804 479.014 167.321C476.513 176.838 480.075 197.558 480.075 197.558C480.075 197.558 470.98 196.587 451.758 195.615L432.476 194.644C432.476 194.644 426.412 207.561 424.441 215.379C422.47 223.196 409.585 273.925 407.387 274.654C407.387 274.654 401.051 257.82 393.744 253.403C386.437 248.985 324.012 223.484 308.17 218.597C292.329 213.709 249.52 201.687 248.777 201.201C248.034 200.715 304.396 196.86 313.961 192.094C323.527 187.327 322.708 188.466 322.708 188.466C322.708 188.466 324.573 175.943 327.332 173.104C330.091 170.266 334.153 151.717 335.214 150.988C335.214 150.988 318.539 142.29 319.055 136.431C319.57 130.572 346.948 80.6626 350.677 77.2321C353.709 76.2151 374.931 76.0937 380.161 75.2892C387.498 74.0748 434.219 86.5674 434.219 86.5674Z" fill="#151619"/>
<path d="M322.147 138.253C322.147 138.253 323.936 142.564 326.286 143.869C328.635 145.174 336.351 151.11 336.351 151.11C336.351 151.11 327.756 169.325 327.013 171.116C324.646 175.262 321.846 179.144 318.661 182.698C316.22 185.141 316.402 185.733 307.701 192.094C304.532 194.416 300.121 196.556 299.818 197.619C299.775 199.022 299.965 200.422 300.379 201.763C300.724 203.395 300.781 205.075 300.545 206.726C300.214 207.666 300.075 208.662 300.136 209.656C300.136 210.309 297.786 214.453 297.695 215.91C297.625 216.929 297.493 217.942 297.301 218.946C297.301 218.946 292.344 215.697 291.692 214.392C291.041 213.086 291.768 211.963 291.692 211.72C291.617 211.477 287.463 209.276 286.584 206.271C285.994 206.014 285.35 205.909 284.709 205.965C284.069 206.02 283.452 206.235 282.915 206.59C282.003 207.269 280.899 207.641 279.762 207.652L264.482 201.581C264.482 201.581 267.984 202.157 268.878 201.338C269.772 200.518 273.577 196.541 274.153 195.888C274.729 195.236 278.368 194.598 279.762 193.778C281.552 192.423 282.928 190.593 283.734 188.496C283.734 188.496 286.417 187.267 287.311 186.781C292.136 181.891 296.139 176.253 299.166 170.084C301.217 166.867 303.523 163.821 306.063 160.976C309.095 158.092 318.433 139.406 318.191 139.346L322.147 138.253Z" fill="#EBEEDB"/>
<path d="M444.209 45.9627C444.209 45.9627 449.075 12.1282 415.3 3.35456C415.3 3.35456 379.009 2.15541 375.659 41.409C375.659 41.409 376.144 54.4176 375.659 54.6604C375.174 54.9033 376.023 58.4401 376.766 58.4401C377.508 58.4401 375.053 60.3982 376.402 66.986C377.751 73.5738 382.465 89.7549 382.602 91.9862C382.738 94.2176 383.83 99.6669 387.604 101.094C391.379 102.521 427.443 105.845 430.596 85.5958C429.837 84.0618 429.325 82.4173 429.08 80.7232C428.898 78.3249 435.144 57.1499 444.209 45.9627Z" fill="#EBEEDB"/>
<path d="M385.346 248.014C385.346 248.014 388.12 249.896 386.377 251.778C384.633 253.661 377.372 257.319 377.372 257.319L340.459 276.779C340.459 276.779 328.332 282.516 327.18 283.002C326.028 283.488 324.618 284.095 323.769 283.731C322.92 283.366 224.507 217.382 224.507 217.382L196.417 160.946C196.417 160.946 195.599 159.155 197.63 159.428C199.661 159.701 218.277 171.222 218.277 171.222L297.271 219.492L321.965 278.372C321.965 278.372 324.194 280.498 328.772 278.737C333.35 276.976 383.83 252.203 384.194 251.9C384.557 251.596 387.059 249.517 382.966 247.877C378.873 246.238 368.474 241.715 368.474 241.715L371.157 240.014L385.346 248.014Z" fill="#0C0E0F"/>
<path d="M469.646 198.681C469.646 198.681 462.764 229.328 462.157 231.286C461.551 233.244 456.548 250.321 447.908 251.9C443.566 251.623 439.212 251.623 434.871 251.9C428.807 252.386 401.975 252.021 389.787 248.727C377.599 245.433 384.557 245.919 378.706 245.691C372.855 245.464 366.654 243.384 364.941 244.72C363.228 246.056 356.907 250.792 343.264 250.792C343.264 250.792 331.94 255.345 329.984 256.271C328.029 257.197 324.497 258.472 324.012 254.936C324.012 254.936 337.443 245.676 341.066 244.447L342.779 243.597C342.779 243.597 341.369 242.671 337.412 243.354C333.456 244.037 322.981 247.68 320.055 249.866C317.13 252.052 316.705 252.006 316.705 252.006C316.705 252.006 313.173 251.824 312.93 249.501C312.688 247.179 312.93 249.198 312.93 249.198C315.61 246.764 318.457 244.522 321.45 242.489C325.603 239.802 327.241 238.284 336.382 236.705L337.109 236.523C337.109 236.523 336.442 236.022 333.517 236.204C331.072 236.523 328.701 237.268 326.513 238.405C326.089 238.648 320.662 240.606 319.752 241.214C317.981 242.64 316.128 243.963 314.204 245.175C313.311 245.367 312.491 245.81 311.839 246.45C311.528 246.777 311.199 247.086 310.854 247.376C310.854 247.376 307.564 245.661 308.368 243.475C308.368 243.475 317.372 231.939 330.47 230.543C324.986 230.72 319.702 232.645 315.386 236.037C308.974 241.517 308.246 242.307 308.246 242.307C308.246 242.307 306.594 242.003 306.655 240.485C306.715 238.967 314.022 231.271 314.886 229.996C315.75 228.721 314.143 228.888 314.325 227.795C314.507 226.702 314.947 225.473 316.038 225.958C317.13 226.444 317.675 227.127 318.236 227.067C318.797 227.006 331.879 222.786 332.971 221.754C334.062 220.722 357.513 225.169 359.469 225.048C361.425 224.926 366.897 223.833 370.914 224.562C374.931 225.291 401.005 226.884 402.945 226.277C404.886 225.67 427.306 221.389 431.748 221.511H432.551C432.551 221.511 433.567 213.754 432.718 210.703C431.869 207.652 430.899 199.061 431.869 196.253C432.839 193.444 469.646 198.681 469.646 198.681Z" fill="#EBEEDB"/>
<path d="M474.194 171.222L481 200.958C481 200.958 465.068 202.097 458.701 203.493C452.334 204.89 431.521 207.333 430.308 207.333C429.095 207.333 427.564 188.845 430.308 186.082C433.052 183.32 474.194 171.222 474.194 171.222Z" fill="#151619"/>
<path d="M327.817 117.973C327.817 117.973 312.521 136.507 311.794 136.507C311.066 136.507 313.522 139.922 315.371 140.165C317.221 140.408 334.396 148.225 334.396 148.225L336.958 149.561L337.822 137.615L327.817 117.973Z" fill="#151619"/>
<path opacity="0.22" d="M421.713 91.6221C418.746 92.2529 415.877 93.2737 413.178 94.6579C408.544 96.8818 403.786 98.8381 398.928 100.517C394.381 102.111 389.014 101.944 387.604 101.124C386.66 100.719 385.817 100.109 385.138 99.3367C384.459 98.5647 383.96 97.6509 383.678 96.6616C383.678 96.6616 386.71 103.72 400.52 98.9233C414.33 94.1266 417.453 86.2183 417.453 86.2183C417.453 86.2183 418.302 92.715 421.713 91.6221Z" fill="#151619"/>
<path opacity="0.16" d="M394.669 89.6791C392.545 89.5949 390.418 89.758 388.332 90.1648C386.255 90.772 383.784 88.4495 382.966 86.2637C382.486 85.0011 381.919 83.7736 381.268 82.5903C381.914 83.3636 382.743 83.9635 383.678 84.336C384.574 84.6496 385.384 85.1696 386.043 85.8539C386.782 85.8916 387.515 86.0138 388.226 86.2182C388.969 86.537 393.638 89.8309 394.669 89.6791Z" fill="#151619"/>
<path d="M424.714 69.7942C424.714 69.7942 425.123 69.3844 424.229 67.2745C423.335 65.1645 422.031 65.3163 421.713 62.9636C421.394 60.6108 421.622 60.201 420.894 60.034C420.166 59.867 418.378 56.8615 416.513 54.0989C415.809 52.9188 414.791 51.9584 413.573 51.3256C412.355 50.6928 410.984 50.4127 409.616 50.5166C407.342 50.8354 405.31 52.6113 400.277 50.5166C395.245 48.4219 389.954 50.1675 387.923 47.0861C385.891 44.0047 381.586 41.2269 379.237 41.2269C376.887 41.2269 375.871 40.0429 375.826 47.162C375.826 47.162 375.204 35.0186 375.826 32.347C376.447 29.6755 381.268 20.0974 383.239 17.0312C388.681 8.57632 406.932 3.97699 406.932 3.97699C407.743 2.41041 409.101 1.19692 410.747 0.567221C412.394 -0.0624756 414.213 -0.0644584 415.861 0.561662C415.861 0.561662 412.526 0.561634 411.647 1.62418C410.768 2.68673 411.647 2.30727 411.647 2.30727C413.314 1.67738 415.118 1.49936 416.877 1.79118C416.877 1.79118 416.149 1.88223 416.119 2.09474C416.088 2.30725 418.347 2.70194 419.151 3.12696C419.954 3.55198 428.701 4.99401 430.626 10.6255C432.623 11.256 434.47 12.2892 436.053 13.6614C437.569 15.4373 444.194 27.6263 444.542 30.0094C444.984 32.0824 445.243 34.1903 445.315 36.3088C445.133 37.3258 440.555 53.1881 440.555 53.1881C440.885 54.5008 440.749 55.8873 440.171 57.111C439.594 58.3346 438.609 59.3195 437.387 59.8974C432.945 62.3412 425.26 74.2266 425.26 74.2266L424.471 76.7312L424.714 69.7942Z" fill="#121315"/>
<path d="M437.796 41.9857C437.796 41.9857 431.611 23.7706 420.242 17.1828C408.873 10.595 402.627 4.23494 387.241 13.0693C387.241 13.0693 407.417 -6.32984 431.46 16.94C431.46 16.94 440.389 26.852 444.451 34.6542C448.514 42.4563 448.514 55.6471 449.605 57.2257C450.697 58.8044 451.561 77.1106 441.692 80.7688C438.84 81.8317 435.771 82.1758 432.754 81.7708C429.738 81.3658 426.867 80.2241 424.396 78.4463C424.396 78.4463 424.517 55.8899 435.598 53.3246C437.228 52.4957 438.776 51.5149 440.222 50.3951L437.796 41.9857Z" fill="#939EA4"/>
</g>
<defs>
<clipPath id="clip0">
<rect width="481" height="456" fill="white" transform="matrix(-1 0 0 1 481 0)"/>
</clipPath>
</defs>
</svg>
